<svg width="775" height="524" viewBox="0 0 775 524" fill="none" xmlns="http://www.w3.org/2000/svg">
    <g filter="url(#filter0_d_32:1215)">
    <rect x="100" y="50" width="575" height="324" rx="24" fill="#16194F"/>
    <mask id="mask0_32:1215" style="mask-type:alpha" maskUnits="userSpaceOnUse" x="100" y="50" width="575" height="324">
    <rect x="100" y="50" width="575" height="324" rx="24" fill="#16194F"/>
    </mask>
    <g mask="url(#mask0_32:1215)">
    <path d="M511.372 2.9062C534.156 -20.5774 571.844 -20.5774 594.628 2.90622L614.474 23.3616C623.755 32.9276 636.047 39.0052 649.283 40.5721L678.2 43.9953C709.763 47.7317 732.44 76.1742 729.051 107.776L725.455 141.316C724.102 153.942 726.929 166.663 733.503 177.527L751.132 206.661C767.32 233.411 759.389 268.178 733.203 285.263L706.393 302.755C695.529 309.844 687.355 320.37 683.177 332.65L673.106 362.252C662.661 392.955 629.07 409.127 598.556 398.145L572.641 388.819C559.945 384.25 546.055 384.25 533.359 388.819L507.444 398.145C476.93 409.127 443.339 392.955 432.894 362.252L422.823 332.65C418.645 320.37 410.471 309.844 399.607 302.755L372.797 285.263C346.611 268.178 338.68 233.411 354.868 206.661L372.497 177.527C379.071 166.663 381.898 153.942 380.545 141.316L376.949 107.776C373.56 76.1742 396.237 47.7317 427.8 43.9953L456.717 40.5721C469.953 39.0052 482.245 32.9276 491.526 23.3616L511.372 2.9062Z" fill="#9A94FF"/>
    <path d="M209.372 -162.094C232.156 -185.577 269.844 -185.577 292.628 -162.094L312.474 -141.638C321.755 -132.072 334.047 -125.995 347.283 -124.428L376.2 -121.005C407.763 -117.268 430.44 -88.8258 427.051 -57.2238L423.455 -23.6839C422.102 -11.0582 424.929 1.66278 431.503 12.5266L449.132 41.6606C465.32 68.4111 457.389 103.178 431.203 120.263L404.393 137.755C393.529 144.844 385.355 155.37 381.177 167.65L371.106 197.252C360.661 227.955 327.07 244.127 296.556 233.145L270.641 223.819C257.945 219.25 244.055 219.25 231.359 223.819L205.444 233.145C174.93 244.127 141.339 227.955 130.894 197.252L120.823 167.65C116.645 155.37 108.471 144.844 97.6069 137.755L70.7968 120.263C44.6106 103.178 36.6803 68.4111 52.8676 41.6606L70.4972 12.5266C77.0711 1.66278 79.8983 -11.0582 78.5446 -23.6839L74.9486 -57.2238C71.5603 -88.8258 94.2369 -117.268 125.8 -121.005L154.717 -124.428C167.953 -125.995 180.245 -132.072 189.526 -141.638L209.372 -162.094Z" fill="#CAC7FF"/>
    <mask id="mask1_32:1215" style="mask-type:alpha" maskUnits="userSpaceOnUse" x="44" y="-180" width="414" height="417">
    <path d="M209.372 -162.094C232.156 -185.577 269.844 -185.577 292.628 -162.094L312.474 -141.638C321.755 -132.072 334.047 -125.995 347.283 -124.428L376.2 -121.005C407.763 -117.268 430.44 -88.8258 427.051 -57.2238L423.455 -23.6839C422.102 -11.0582 424.929 1.66278 431.503 12.5266L449.132 41.6606C465.32 68.4111 457.389 103.178 431.203 120.263L404.393 137.755C393.529 144.844 385.355 155.37 381.177 167.65L371.106 197.252C360.661 227.955 327.07 244.127 296.556 233.145L270.641 223.819C257.945 219.25 244.055 219.25 231.359 223.819L205.444 233.145C174.93 244.127 141.339 227.955 130.894 197.252L120.823 167.65C116.645 155.37 108.471 144.844 97.6069 137.755L70.7968 120.263C44.6106 103.178 36.6803 68.4111 52.8676 41.6606L70.4972 12.5266C77.0711 1.66278 79.8983 -11.0582 78.5446 -23.6839L74.9486 -57.2238C71.5603 -88.8258 94.2369 -117.268 125.8 -121.005L154.717 -124.428C167.953 -125.995 180.245 -132.072 189.526 -141.638L209.372 -162.094Z" fill="#CAC7FF"/>
    </mask>
    <g mask="url(#mask1_32:1215)">
    <path d="M231.737 191.992C261.469 161.346 310.651 161.346 340.383 191.992L366.282 218.686C378.393 231.169 394.435 239.1 411.707 241.145L449.444 245.612C490.633 250.488 520.225 287.605 515.804 328.845L511.111 372.614C509.344 389.09 513.034 405.691 521.613 419.868L544.619 457.887C565.743 492.796 555.394 538.166 521.222 560.462L486.235 583.289C472.057 592.539 461.39 606.275 455.938 622.301L442.796 660.931C429.165 700.997 385.33 722.102 345.51 707.771L311.691 695.599C295.124 689.637 276.997 689.637 260.43 695.599L226.611 707.771C186.79 722.102 142.955 700.997 129.324 660.931L116.182 622.301C110.73 606.275 100.063 592.539 85.8853 583.289L50.8988 560.462C16.7263 538.166 6.3774 492.796 27.5015 457.887L50.5078 419.868C59.0866 405.691 62.7759 389.09 61.0094 372.614L56.3167 328.845C51.8951 287.605 81.4876 250.488 122.676 245.612L160.413 241.145C177.686 239.1 193.727 231.169 205.838 218.686L231.737 191.992Z" fill="#16194F"/>
    <path d="M231.737 191.992C261.469 161.346 310.651 161.346 340.383 191.992L366.282 218.686C378.393 231.169 394.435 239.1 411.707 241.145L449.444 245.612C490.633 250.488 520.225 287.605 515.804 328.845L511.111 372.614C509.344 389.09 513.034 405.691 521.613 419.868L544.619 457.887C565.743 492.796 555.394 538.166 521.222 560.462L486.235 583.289C472.057 592.539 461.39 606.275 455.938 622.301L442.796 660.931C429.165 700.997 385.33 722.102 345.51 707.771L311.691 695.599C295.124 689.637 276.997 689.637 260.43 695.599L226.611 707.771C186.79 722.102 142.955 700.997 129.324 660.931L116.182 622.301C110.73 606.275 100.063 592.539 85.8853 583.289L50.8988 560.462C16.7263 538.166 6.3774 492.796 27.5015 457.887L50.5078 419.868C59.0866 405.691 62.7759 389.09 61.0094 372.614L56.3167 328.845C51.8951 287.605 81.4876 250.488 122.676 245.612L160.413 241.145C177.686 239.1 193.727 231.169 205.838 218.686L231.737 191.992Z" fill="#F44E77"/>
    </g>
    </g>
    <path d="M164.75 193.5H190.25V195.625H196.625V199.875H190.25V204.125H196.625V208.375H190.25V212.625H196.625V216.875H190.25V221.125H196.625V225.375H190.25V227.5H164.75V225.375H158.375V221.125H164.75V216.875H158.375V212.625H164.75V208.375H158.375V204.125H164.75V199.875H158.375V195.625H164.75V193.5ZM175.375 216.875V223.25H177.5V216.875H175.375ZM179.625 216.875V223.25H181.75V216.875H179.625ZM183.875 216.875V223.25H186V216.875H183.875Z" fill="#F2F6FF"/>
    <path d="M147.371 111.523C147.371 110.859 147.137 110.352 146.668 110C146.199 109.641 145.355 109.266 144.137 108.875C142.918 108.477 141.953 108.086 141.242 107.703C139.305 106.656 138.336 105.246 138.336 103.473C138.336 102.551 138.594 101.73 139.109 101.012C139.633 100.285 140.379 99.7188 141.348 99.3125C142.324 98.9062 143.418 98.7031 144.629 98.7031C145.848 98.7031 146.934 98.9258 147.887 99.3711C148.84 99.8086 149.578 100.43 150.102 101.234C150.633 102.039 150.898 102.953 150.898 103.977H147.383C147.383 103.195 147.137 102.59 146.645 102.16C146.152 101.723 145.461 101.504 144.57 101.504C143.711 101.504 143.043 101.688 142.566 102.055C142.09 102.414 141.852 102.891 141.852 103.484C141.852 104.039 142.129 104.504 142.684 104.879C143.246 105.254 144.07 105.605 145.156 105.934C147.156 106.535 148.613 107.281 149.527 108.172C150.441 109.062 150.898 110.172 150.898 111.5C150.898 112.977 150.34 114.137 149.223 114.98C148.105 115.816 146.602 116.234 144.711 116.234C143.398 116.234 142.203 115.996 141.125 115.52C140.047 115.035 139.223 114.375 138.652 113.539C138.09 112.703 137.809 111.734 137.809 110.633H141.336C141.336 112.516 142.461 113.457 144.711 113.457C145.547 113.457 146.199 113.289 146.668 112.953C147.137 112.609 147.371 112.133 147.371 111.523ZM160.414 116C160.258 115.695 160.145 115.316 160.074 114.863C159.254 115.777 158.188 116.234 156.875 116.234C155.633 116.234 154.602 115.875 153.781 115.156C152.969 114.438 152.562 113.531 152.562 112.438C152.562 111.094 153.059 110.062 154.051 109.344C155.051 108.625 156.492 108.262 158.375 108.254H159.934V107.527C159.934 106.941 159.781 106.473 159.477 106.121C159.18 105.77 158.707 105.594 158.059 105.594C157.488 105.594 157.039 105.73 156.711 106.004C156.391 106.277 156.23 106.652 156.23 107.129H152.844C152.844 106.395 153.07 105.715 153.523 105.09C153.977 104.465 154.617 103.977 155.445 103.625C156.273 103.266 157.203 103.086 158.234 103.086C159.797 103.086 161.035 103.48 161.949 104.27C162.871 105.051 163.332 106.152 163.332 107.574V113.07C163.34 114.273 163.508 115.184 163.836 115.801V116H160.414ZM157.613 113.645C158.113 113.645 158.574 113.535 158.996 113.316C159.418 113.09 159.73 112.789 159.934 112.414V110.234H158.668C156.973 110.234 156.07 110.82 155.961 111.992L155.949 112.191C155.949 112.613 156.098 112.961 156.395 113.234C156.691 113.508 157.098 113.645 157.613 113.645ZM169.109 103.32L169.215 104.738C170.113 103.637 171.328 103.086 172.859 103.086C174.492 103.086 175.613 103.73 176.223 105.02C177.113 103.73 178.383 103.086 180.031 103.086C181.406 103.086 182.43 103.488 183.102 104.293C183.773 105.09 184.109 106.293 184.109 107.902V116H180.711V107.914C180.711 107.195 180.57 106.672 180.289 106.344C180.008 106.008 179.512 105.84 178.801 105.84C177.785 105.84 177.082 106.324 176.691 107.293L176.703 116H173.316V107.926C173.316 107.191 173.172 106.66 172.883 106.332C172.594 106.004 172.102 105.84 171.406 105.84C170.445 105.84 169.75 106.238 169.32 107.035V116H165.934V103.32H169.109ZM189.898 103.32L190.004 104.738C190.902 103.637 192.117 103.086 193.648 103.086C195.281 103.086 196.402 103.73 197.012 105.02C197.902 103.73 199.172 103.086 200.82 103.086C202.195 103.086 203.219 103.488 203.891 104.293C204.562 105.09 204.898 106.293 204.898 107.902V116H201.5V107.914C201.5 107.195 201.359 106.672 201.078 106.344C200.797 106.008 200.301 105.84 199.59 105.84C198.574 105.84 197.871 106.324 197.48 107.293L197.492 116H194.105V107.926C194.105 107.191 193.961 106.66 193.672 106.332C193.383 106.004 192.891 105.84 192.195 105.84C191.234 105.84 190.539 106.238 190.109 107.035V116H186.723V103.32H189.898ZM212.246 111.207L214.59 103.32H218.223L213.125 117.969L212.844 118.637C212.086 120.293 210.836 121.121 209.094 121.121C208.602 121.121 208.102 121.047 207.594 120.898V118.332L208.109 118.344C208.75 118.344 209.227 118.246 209.539 118.051C209.859 117.855 210.109 117.531 210.289 117.078L210.688 116.035L206.246 103.32H209.891L212.246 111.207ZM244.648 98.9375V110.176C244.648 112.043 244.062 113.52 242.891 114.605C241.727 115.691 240.133 116.234 238.109 116.234C236.117 116.234 234.535 115.707 233.363 114.652C232.191 113.598 231.594 112.148 231.57 110.305V98.9375H235.086V110.199C235.086 111.316 235.352 112.133 235.883 112.648C236.422 113.156 237.164 113.41 238.109 113.41C240.086 113.41 241.09 112.371 241.121 110.293V98.9375H244.648ZM246.816 109.566C246.816 107.621 247.277 106.055 248.199 104.867C249.129 103.68 250.379 103.086 251.949 103.086C253.34 103.086 254.422 103.562 255.195 104.516L255.336 103.32H258.406V115.578C258.406 116.688 258.152 117.652 257.645 118.473C257.145 119.293 256.438 119.918 255.523 120.348C254.609 120.777 253.539 120.992 252.312 120.992C251.383 120.992 250.477 120.805 249.594 120.43C248.711 120.062 248.043 119.586 247.59 119L249.09 116.938C249.934 117.883 250.957 118.355 252.16 118.355C253.059 118.355 253.758 118.113 254.258 117.629C254.758 117.152 255.008 116.473 255.008 115.59V114.91C254.227 115.793 253.199 116.234 251.926 116.234C250.402 116.234 249.168 115.641 248.223 114.453C247.285 113.258 246.816 111.676 246.816 109.707V109.566ZM250.203 109.812C250.203 110.961 250.434 111.863 250.895 112.52C251.355 113.168 251.988 113.492 252.793 113.492C253.824 113.492 254.562 113.105 255.008 112.332V107C254.555 106.227 253.824 105.84 252.816 105.84C252.004 105.84 251.363 106.172 250.895 106.836C250.434 107.5 250.203 108.492 250.203 109.812ZM260.492 109.543C260.492 108.285 260.734 107.164 261.219 106.18C261.703 105.195 262.398 104.434 263.305 103.895C264.219 103.355 265.277 103.086 266.48 103.086C268.191 103.086 269.586 103.609 270.664 104.656C271.75 105.703 272.355 107.125 272.48 108.922L272.504 109.789C272.504 111.734 271.961 113.297 270.875 114.477C269.789 115.648 268.332 116.234 266.504 116.234C264.676 116.234 263.215 115.648 262.121 114.477C261.035 113.305 260.492 111.711 260.492 109.695V109.543ZM263.879 109.789C263.879 110.992 264.105 111.914 264.559 112.555C265.012 113.188 265.66 113.504 266.504 113.504C267.324 113.504 267.965 113.191 268.426 112.566C268.887 111.934 269.117 110.926 269.117 109.543C269.117 108.363 268.887 107.449 268.426 106.801C267.965 106.152 267.316 105.828 266.48 105.828C265.652 105.828 265.012 106.152 264.559 106.801C264.105 107.441 263.879 108.438 263.879 109.789Z" fill="white"/>
    <path d="M140.809 315.012H142.166C143.019 314.999 143.689 314.774 144.178 314.338C144.666 313.902 144.91 313.312 144.91 312.57C144.91 310.904 144.08 310.07 142.42 310.07C141.639 310.07 141.014 310.295 140.545 310.744C140.083 311.187 139.852 311.776 139.852 312.512H138.045C138.045 311.385 138.455 310.451 139.275 309.709C140.102 308.96 141.15 308.586 142.42 308.586C143.761 308.586 144.812 308.941 145.574 309.65C146.336 310.36 146.717 311.346 146.717 312.609C146.717 313.228 146.515 313.827 146.111 314.406C145.714 314.986 145.171 315.419 144.48 315.705C145.262 315.952 145.864 316.363 146.287 316.936C146.717 317.508 146.932 318.208 146.932 319.035C146.932 320.311 146.515 321.324 145.682 322.072C144.848 322.821 143.764 323.195 142.43 323.195C141.095 323.195 140.008 322.834 139.168 322.111C138.335 321.389 137.918 320.435 137.918 319.25H139.734C139.734 319.999 139.979 320.598 140.467 321.047C140.955 321.496 141.609 321.721 142.43 321.721C143.302 321.721 143.969 321.493 144.432 321.037C144.894 320.581 145.125 319.927 145.125 319.074C145.125 318.247 144.871 317.613 144.363 317.17C143.855 316.727 143.123 316.499 142.166 316.486H140.809V315.012ZM158.729 323H149.412V321.701L154.334 316.232C155.063 315.406 155.564 314.735 155.838 314.221C156.118 313.7 156.258 313.163 156.258 312.609C156.258 311.867 156.033 311.258 155.584 310.783C155.135 310.308 154.536 310.07 153.787 310.07C152.889 310.07 152.189 310.327 151.688 310.842C151.193 311.35 150.945 312.059 150.945 312.971H149.139C149.139 311.662 149.559 310.604 150.398 309.797C151.245 308.99 152.374 308.586 153.787 308.586C155.109 308.586 156.154 308.934 156.922 309.631C157.69 310.321 158.074 311.242 158.074 312.395C158.074 313.794 157.182 315.461 155.398 317.395L151.59 321.525H158.729V323ZM163.27 315.012H164.627C165.48 314.999 166.15 314.774 166.639 314.338C167.127 313.902 167.371 313.312 167.371 312.57C167.371 310.904 166.541 310.07 164.881 310.07C164.1 310.07 163.475 310.295 163.006 310.744C162.544 311.187 162.312 311.776 162.312 312.512H160.506C160.506 311.385 160.916 310.451 161.736 309.709C162.563 308.96 163.611 308.586 164.881 308.586C166.222 308.586 167.273 308.941 168.035 309.65C168.797 310.36 169.178 311.346 169.178 312.609C169.178 313.228 168.976 313.827 168.572 314.406C168.175 314.986 167.632 315.419 166.941 315.705C167.723 315.952 168.325 316.363 168.748 316.936C169.178 317.508 169.393 318.208 169.393 319.035C169.393 320.311 168.976 321.324 168.143 322.072C167.309 322.821 166.225 323.195 164.891 323.195C163.556 323.195 162.469 322.834 161.629 322.111C160.796 321.389 160.379 320.435 160.379 319.25H162.195C162.195 319.999 162.439 320.598 162.928 321.047C163.416 321.496 164.07 321.721 164.891 321.721C165.763 321.721 166.43 321.493 166.893 321.037C167.355 320.581 167.586 319.927 167.586 319.074C167.586 318.247 167.332 317.613 166.824 317.17C166.316 316.727 165.584 316.499 164.627 316.486H163.27V315.012ZM179.5 318.225H181.473V319.699H179.5V323H177.684V319.699H171.209V318.635L177.576 308.781H179.5V318.225ZM173.26 318.225H177.684V311.252L177.469 311.643L173.26 318.225ZM190.105 313.4L187.156 312.521L187.605 311.047L190.555 312.141L190.467 308.781H191.961L191.863 312.189L194.764 311.115L195.213 312.6L192.215 313.488L194.148 316.135L192.938 317.053L191.121 314.24L189.363 316.984L188.143 316.096L190.105 313.4ZM198.719 313.4L195.77 312.521L196.219 311.047L199.168 312.141L199.08 308.781H200.574L200.477 312.189L203.377 311.115L203.826 312.6L200.828 313.488L202.762 316.135L201.551 317.053L199.734 314.24L197.977 316.984L196.756 316.096L198.719 313.4ZM207.332 313.4L204.383 312.521L204.832 311.047L207.781 312.141L207.693 308.781H209.188L209.09 312.189L211.99 311.115L212.439 312.6L209.441 313.488L211.375 316.135L210.164 317.053L208.348 314.24L206.59 316.984L205.369 316.096L207.332 313.4ZM215.945 313.4L212.996 312.521L213.445 311.047L216.395 312.141L216.307 308.781H217.801L217.703 312.189L220.604 311.115L221.053 312.6L218.055 313.488L219.988 316.135L218.777 317.053L216.961 314.24L215.203 316.984L213.982 316.096L215.945 313.4ZM229.52 313.4L226.57 312.521L227.02 311.047L229.969 312.141L229.881 308.781H231.375L231.277 312.189L234.178 311.115L234.627 312.6L231.629 313.488L233.562 316.135L232.352 317.053L230.535 314.24L228.777 316.984L227.557 316.096L229.52 313.4ZM238.133 313.4L235.184 312.521L235.633 311.047L238.582 312.141L238.494 308.781H239.988L239.891 312.189L242.791 311.115L243.24 312.6L240.242 313.488L242.176 316.135L240.965 317.053L239.148 314.24L237.391 316.984L236.17 316.096L238.133 313.4ZM246.746 313.4L243.797 312.521L244.246 311.047L247.195 312.141L247.107 308.781H248.602L248.504 312.189L251.404 311.115L251.854 312.6L248.855 313.488L250.789 316.135L249.578 317.053L247.762 314.24L246.004 316.984L244.783 316.096L246.746 313.4ZM267.596 323H258.279V321.701L263.201 316.232C263.93 315.406 264.432 314.735 264.705 314.221C264.985 313.7 265.125 313.163 265.125 312.609C265.125 311.867 264.9 311.258 264.451 310.783C264.002 310.308 263.403 310.07 262.654 310.07C261.756 310.07 261.056 310.327 260.555 310.842C260.06 311.35 259.812 312.059 259.812 312.971H258.006C258.006 311.662 258.426 310.604 259.266 309.797C260.112 308.99 261.242 308.586 262.654 308.586C263.976 308.586 265.021 308.934 265.789 309.631C266.557 310.321 266.941 311.242 266.941 312.395C266.941 313.794 266.049 315.461 264.266 317.395L260.457 321.525H267.596V323ZM275.447 323H273.631V310.959L269.988 312.297V310.656L275.164 308.713H275.447V323ZM283.367 315.012H284.725C285.577 314.999 286.248 314.774 286.736 314.338C287.225 313.902 287.469 313.312 287.469 312.57C287.469 310.904 286.639 310.07 284.979 310.07C284.197 310.07 283.572 310.295 283.104 310.744C282.641 311.187 282.41 311.776 282.41 312.512H280.604C280.604 311.385 281.014 310.451 281.834 309.709C282.661 308.96 283.709 308.586 284.979 308.586C286.32 308.586 287.371 308.941 288.133 309.65C288.895 310.36 289.275 311.346 289.275 312.609C289.275 313.228 289.074 313.827 288.67 314.406C288.273 314.986 287.729 315.419 287.039 315.705C287.82 315.952 288.423 316.363 288.846 316.936C289.275 317.508 289.49 318.208 289.49 319.035C289.49 320.311 289.074 321.324 288.24 322.072C287.407 322.821 286.323 323.195 284.988 323.195C283.654 323.195 282.566 322.834 281.727 322.111C280.893 321.389 280.477 320.435 280.477 319.25H282.293C282.293 319.999 282.537 320.598 283.025 321.047C283.514 321.496 284.168 321.721 284.988 321.721C285.861 321.721 286.528 321.493 286.99 321.037C287.452 320.581 287.684 319.927 287.684 319.074C287.684 318.247 287.43 317.613 286.922 317.17C286.414 316.727 285.682 316.499 284.725 316.486H283.367V315.012ZM294.598 315.012H295.955C296.808 314.999 297.479 314.774 297.967 314.338C298.455 313.902 298.699 313.312 298.699 312.57C298.699 310.904 297.869 310.07 296.209 310.07C295.428 310.07 294.803 310.295 294.334 310.744C293.872 311.187 293.641 311.776 293.641 312.512H291.834C291.834 311.385 292.244 310.451 293.064 309.709C293.891 308.96 294.939 308.586 296.209 308.586C297.55 308.586 298.602 308.941 299.363 309.65C300.125 310.36 300.506 311.346 300.506 312.609C300.506 313.228 300.304 313.827 299.9 314.406C299.503 314.986 298.96 315.419 298.27 315.705C299.051 315.952 299.653 316.363 300.076 316.936C300.506 317.508 300.721 318.208 300.721 319.035C300.721 320.311 300.304 321.324 299.471 322.072C298.637 322.821 297.553 323.195 296.219 323.195C294.884 323.195 293.797 322.834 292.957 322.111C292.124 321.389 291.707 320.435 291.707 319.25H293.523C293.523 319.999 293.768 320.598 294.256 321.047C294.744 321.496 295.398 321.721 296.219 321.721C297.091 321.721 297.758 321.493 298.221 321.037C298.683 320.581 298.914 319.927 298.914 319.074C298.914 318.247 298.66 317.613 298.152 317.17C297.645 316.727 296.912 316.499 295.955 316.486H294.598V315.012ZM312.518 323H303.201V321.701L308.123 316.232C308.852 315.406 309.354 314.735 309.627 314.221C309.907 313.7 310.047 313.163 310.047 312.609C310.047 311.867 309.822 311.258 309.373 310.783C308.924 310.308 308.325 310.07 307.576 310.07C306.678 310.07 305.978 310.327 305.477 310.842C304.982 311.35 304.734 312.059 304.734 312.971H302.928C302.928 311.662 303.348 310.604 304.188 309.797C305.034 308.99 306.163 308.586 307.576 308.586C308.898 308.586 309.943 308.934 310.711 309.631C311.479 310.321 311.863 311.242 311.863 312.395C311.863 313.794 310.971 315.461 309.188 317.395L305.379 321.525H312.518V323Z" fill="white"/>
    <circle opacity="0.75" cx="607.5" cy="313.5" r="17.5" fill="white"/>
    <circle cx="590.5" cy="313.5" r="17.5" fill="white"/>
    </g>
    <defs>
    <filter id="filter0_d_32:1215" x="0" y="0" width="775" height="524" filterUnits="userSpaceOnUse" color-interpolation-filters="sRGB">
    <feFlood flood-opacity="0" result="BackgroundImageFix"/>
    <feColorMatrix in="SourceAlpha" type="matrix" values="0 0 0 0 0 0 0 0 0 0 0 0 0 0 0 0 0 0 127 0" result="hardAlpha"/>
    <feOffset dy="50"/>
    <feGaussianBlur stdDeviation="50"/>
    <feComposite in2="hardAlpha" operator="out"/>
    <feColorMatrix type="matrix" values="0 0 0 0 0.0862745 0 0 0 0 0.0980392 0 0 0 0 0.309804 0 0 0 0.15 0"/>
    <feBlend mode="normal" in2="BackgroundImageFix" result="effect1_dropShadow_32:1215"/>
    <feBlend mode="normal" in="SourceGraphic" in2="effect1_dropShadow_32:1215" result="shape"/>
    </filter>
    </defs>
    </svg>
    