<svg width="190" height="259" viewBox="0 0 190 259" fill="none" xmlns="http://www.w3.org/2000/svg">
    <circle cx="8" cy="8" r="8" fill="#6A6D93" fill-opacity="0.1"/>
    <circle cx="37" cy="8" r="8" fill="#6A6D93" fill-opacity="0.1"/>
    <circle cx="66" cy="8" r="8" fill="#6A6D93" fill-opacity="0.1"/>
    <circle cx="95" cy="8" r="8" fill="#6A6D93" fill-opacity="0.1"/>
    <circle cx="124" cy="8" r="8" fill="#6A6D93" fill-opacity="0.1"/>
    <circle cx="153" cy="8" r="8" fill="#6A6D93" fill-opacity="0.1"/>
    <circle cx="182" cy="8" r="8" fill="#6A6D93" fill-opacity="0.1"/>
    <circle cx="8" cy="35" r="8" fill="#6A6D93" fill-opacity="0.1"/>
    <circle cx="37" cy="35" r="8" fill="#6A6D93" fill-opacity="0.1"/>
    <circle cx="66" cy="35" r="8" fill="#6A6D93" fill-opacity="0.1"/>
    <circle cx="95" cy="35" r="8" fill="#6A6D93" fill-opacity="0.1"/>
    <circle cx="124" cy="35" r="8" fill="#6A6D93" fill-opacity="0.1"/>
    <circle cx="153" cy="35" r="8" fill="#6A6D93" fill-opacity="0.1"/>
    <circle cx="182" cy="35" r="8" fill="#6A6D93" fill-opacity="0.1"/>
    <circle cx="8" cy="62" r="8" fill="#6A6D93" fill-opacity="0.1"/>
    <circle cx="37" cy="62" r="8" fill="#6A6D93" fill-opacity="0.1"/>
    <circle cx="66" cy="62" r="8" fill="#6A6D93" fill-opacity="0.1"/>
    <circle cx="95" cy="62" r="8" fill="#6A6D93" fill-opacity="0.1"/>
    <circle cx="124" cy="62" r="8" fill="#6A6D93" fill-opacity="0.1"/>
    <circle cx="153" cy="62" r="8" fill="#6A6D93" fill-opacity="0.1"/>
    <circle cx="182" cy="62" r="8" fill="#6A6D93" fill-opacity="0.1"/>
    <circle cx="8" cy="89" r="8" fill="#6A6D93" fill-opacity="0.1"/>
    <circle cx="37" cy="89" r="8" fill="#6A6D93" fill-opacity="0.1"/>
    <circle cx="66" cy="89" r="8" fill="#6A6D93" fill-opacity="0.1"/>
    <circle cx="95" cy="89" r="8" fill="#6A6D93" fill-opacity="0.1"/>
    <circle cx="124" cy="89" r="8" fill="#6A6D93" fill-opacity="0.1"/>
    <circle cx="153" cy="89" r="8" fill="#6A6D93" fill-opacity="0.1"/>
    <circle cx="182" cy="89" r="8" fill="#6A6D93" fill-opacity="0.1"/>
    <circle cx="8" cy="116" r="8" fill="#6A6D93" fill-opacity="0.1"/>
    <circle cx="37" cy="116" r="8" fill="#6A6D93" fill-opacity="0.1"/>
    <circle cx="66" cy="116" r="8" fill="#6A6D93" fill-opacity="0.1"/>
    <circle cx="95" cy="116" r="8" fill="#6A6D93" fill-opacity="0.1"/>
    <circle cx="124" cy="116" r="8" fill="#6A6D93" fill-opacity="0.1"/>
    <circle cx="153" cy="116" r="8" fill="#6A6D93" fill-opacity="0.1"/>
    <circle cx="182" cy="116" r="8" fill="#6A6D93" fill-opacity="0.1"/>
    <circle cx="8" cy="143" r="8" fill="#6A6D93" fill-opacity="0.1"/>
    <circle cx="37" cy="143" r="8" fill="#6A6D93" fill-opacity="0.1"/>
    <circle cx="66" cy="143" r="8" fill="#6A6D93" fill-opacity="0.1"/>
    <circle cx="95" cy="143" r="8" fill="#6A6D93" fill-opacity="0.1"/>
    <circle cx="124" cy="143" r="8" fill="#6A6D93" fill-opacity="0.1"/>
    <circle cx="153" cy="143" r="8" fill="#6A6D93" fill-opacity="0.1"/>
    <circle cx="182" cy="143" r="8" fill="#6A6D93" fill-opacity="0.1"/>
    <circle cx="8" cy="170" r="8" fill="#6A6D93" fill-opacity="0.1"/>
    <circle cx="37" cy="170" r="8" fill="#6A6D93" fill-opacity="0.1"/>
    <circle cx="66" cy="170" r="8" fill="#6A6D93" fill-opacity="0.1"/>
    <circle cx="95" cy="170" r="8" fill="#6A6D93" fill-opacity="0.1"/>
    <circle cx="124" cy="170" r="8" fill="#6A6D93" fill-opacity="0.1"/>
    <circle cx="153" cy="170" r="8" fill="#6A6D93" fill-opacity="0.1"/>
    <circle cx="182" cy="170" r="8" fill="#6A6D93" fill-opacity="0.1"/>
    <circle cx="8" cy="197" r="8" fill="#6A6D93" fill-opacity="0.1"/>
    <circle cx="37" cy="197" r="8" fill="#6A6D93" fill-opacity="0.1"/>
    <circle cx="66" cy="197" r="8" fill="#6A6D93" fill-opacity="0.1"/>
    <circle cx="95" cy="197" r="8" fill="#6A6D93" fill-opacity="0.1"/>
    <circle cx="124" cy="197" r="8" fill="#6A6D93" fill-opacity="0.1"/>
    <circle cx="153" cy="197" r="8" fill="#6A6D93" fill-opacity="0.1"/>
    <circle cx="182" cy="197" r="8" fill="#6A6D93" fill-opacity="0.1"/>
    <circle cx="8" cy="224" r="8" fill="#6A6D93" fill-opacity="0.1"/>
    <circle cx="37" cy="224" r="8" fill="#6A6D93" fill-opacity="0.1"/>
    <circle cx="66" cy="224" r="8" fill="#6A6D93" fill-opacity="0.1"/>
    <circle cx="95" cy="224" r="8" fill="#6A6D93" fill-opacity="0.1"/>
    <circle cx="124" cy="224" r="8" fill="#6A6D93" fill-opacity="0.1"/>
    <circle cx="153" cy="224" r="8" fill="#6A6D93" fill-opacity="0.1"/>
    <circle cx="182" cy="224" r="8" fill="#6A6D93" fill-opacity="0.1"/>
    <circle cx="8" cy="251" r="8" fill="#6A6D93" fill-opacity="0.1"/>
    <circle cx="37" cy="251" r="8" fill="#6A6D93" fill-opacity="0.1"/>
    <circle cx="66" cy="251" r="8" fill="#6A6D93" fill-opacity="0.1"/>
    <circle cx="95" cy="251" r="8" fill="#6A6D93" fill-opacity="0.1"/>
    <circle cx="124" cy="251" r="8" fill="#6A6D93" fill-opacity="0.1"/>
    <circle cx="153" cy="251" r="8" fill="#6A6D93" fill-opacity="0.1"/>
    <circle cx="182" cy="251" r="8" fill="#6A6D93" fill-opacity="0.1"/>
    </svg>
    