<svg width="2271" height="2108" viewBox="0 0 2271 2108" fill="none" xmlns="http://www.w3.org/2000/svg">
    <path opacity="0.0333333" d="M628.416 1349.14C771.586 1308.02 1010.15 1112.99 819.038 661.826C627.927 210.665 900.814 188.556 1061.15 233.897" stroke="#6A6D93" stroke-width="0.783376"/>
    <path opacity="0.0666667" d="M635.665 1344.56C782.577 1316.26 1038.63 1144.47 887.553 683.655C736.475 222.841 1011.49 224.348 1167.88 282.704" stroke="#6A6D93" stroke-width="0.783376"/>
    <path opacity="0.1" d="M642.913 1339.97C792.383 1324.71 1063.72 1177.41 953.322 710.355C842.921 243.298 1117.91 268.399 1269.2 339.332" stroke="#6A6D93" stroke-width="0.783376"/>
    <path opacity="0.133333" d="M650.161 1335.39C800.987 1333.25 1085.29 1211.5 1015.91 741.621C946.535 271.738 1219.34 320.225 1364.42 403.204" stroke="#6A6D93" stroke-width="0.783376"/>
    <path opacity="0.166667" d="M657.41 1330.81C808.38 1341.79 1103.24 1246.42 1074.93 777.11C1046.61 307.798 1315.11 379.281 1452.89 473.687" stroke="#6A6D93" stroke-width="0.783376"/>
    <path opacity="0.2" d="M664.659 1326.23C814.563 1350.21 1117.5 1281.84 1129.99 816.454C1142.49 351.065 1404.57 444.975 1534.05 550.103" stroke="#6A6D93" stroke-width="0.783376"/>
    <path opacity="0.233333" d="M671.907 1321.64C819.547 1358.42 1128.02 1317.44 1180.78 859.257C1233.54 401.076 1487.17 516.667 1607.39 631.735" stroke="#6A6D93" stroke-width="0.783376"/>
    <path opacity="0.266667" d="M679.156 1317.06C823.35 1366.31 1134.79 1352.88 1226.99 905.099C1319.2 457.321 1562.38 593.679 1672.45 717.83" stroke="#6A6D93" stroke-width="0.783376"/>
    <path opacity="0.3" d="M686.404 1312.48C826.005 1373.79 1137.84 1387.83 1268.38 953.54C1398.92 519.247 1629.77 675.295 1728.88 807.606" stroke="#6A6D93" stroke-width="0.783376"/>
    <path opacity="0.333333" d="M693.653 1307.9C827.549 1380.75 1137.22 1421.99 1304.73 1004.13C1472.24 586.265 1688.95 760.773 1776.37 900.261" stroke="#6A6D93" stroke-width="0.783376"/>
    <path opacity="0.366667" d="M700.901 1303.31C828.029 1387.1 1133 1455.02 1335.87 1056.39C1538.74 657.755 1739.62 849.351 1814.71 994.978" stroke="#6A6D93" stroke-width="0.783376"/>
    <path opacity="0.4" d="M708.15 1298.73C827.502 1392.77 1125.3 1486.64 1361.68 1109.86C1598.06 733.073 1781.55 940.249 1843.74 1090.94" stroke="#6A6D93" stroke-width="0.783376"/>
    <path opacity="0.433333" d="M715.398 1294.15C826.031 1397.66 1114.25 1516.56 1382.07 1164.05C1649.89 811.548 1814.56 1032.68 1863.42 1187.3" stroke="#6A6D93" stroke-width="0.783376"/>
    <path opacity="0.466667" d="M722.647 1289.56C823.689 1401.7 1100.02 1544.48 1397.01 1218.49C1694.01 892.5 1838.58 1125.84 1873.74 1283.26" stroke="#6A6D93" stroke-width="0.783376"/>
    <path opacity="0.5" d="M729.896 1284.98C820.553 1404.83 1082.8 1570.17 1406.51 1272.7C1730.23 975.235 1853.58 1218.96 1874.79 1378.01" stroke="#6A6D93" stroke-width="0.783376"/>
    <path opacity="0.533333" d="M737.144 1280.4C816.708 1406.99 1062.79 1593.38 1410.62 1326.22C1758.46 1059.06 1859.62 1311.26 1866.73 1470.76" stroke="#6A6D93" stroke-width="0.783376"/>
    <path opacity="0.566667" d="M744.393 1275.82C812.244 1408.12 1040.24 1613.89 1409.44 1378.58C1778.63 1143.27 1856.84 1401.97 1849.79 1560.73" stroke="#6A6D93" stroke-width="0.783376"/>
    <path opacity="0.6" d="M751.641 1271.23C807.255 1408.17 1015.41 1631.51 1403.09 1429.35C1790.78 1227.19 1845.42 1490.36 1824.28 1647.21" stroke="#6A6D93" stroke-width="0.783376"/>
    <path opacity="0.633333" d="M758.889 1266.65C801.842 1407.12 988.55 1646.08 1391.77 1478.11C1794.98 1310.14 1825.64 1575.71 1790.57 1729.49" stroke="#6A6D93" stroke-width="0.783376"/>
    <path opacity="0.666667" d="M766.138 1262.07C796.105 1404.94 959.966 1657.44 1375.67 1524.45C1791.38 1391.46 1797.82 1657.36 1749.08 1806.93" stroke="#6A6D93" stroke-width="0.783376"/>
    <path opacity="0.7" d="M773.386 1257.49C790.15 1401.61 929.953 1665.48 1355.06 1567.99C1780.16 1470.5 1762.36 1734.65 1700.32 1878.91" stroke="#6A6D93" stroke-width="0.783376"/>
    <path opacity="0.733333" d="M780.635 1252.9C784.083 1397.11 898.824 1670.11 1330.21 1608.39C1761.59 1546.68 1719.68 1807 1644.81 1944.88" stroke="#6A6D93" stroke-width="0.783376"/>
    <path opacity="0.766667" d="M787.884 1248.32C778.01 1391.46 866.898 1671.26 1301.44 1645.33C1735.98 1619.39 1670.31 1873.87 1583.16 2004.34" stroke="#6A6D93" stroke-width="0.783376"/>
    <path opacity="0.8" d="M795.132 1243.74C772.038 1384.66 834.5 1668.92 1269.09 1678.52C1703.69 1688.11 1614.77 1934.74 1515.99 2056.86" stroke="#6A6D93" stroke-width="0.783376"/>
    </svg>
    