<svg width="569" height="570" viewBox="0 0 569 570" fill="none" xmlns="http://www.w3.org/2000/svg">
    <g filter="url(#filter0_d_227:2)">
    <rect x="50" y="25" width="223" height="180" rx="50" fill="white"/>
    <rect x="50.25" y="25.25" width="222.5" height="179.5" rx="49.75" stroke="#F2F6FF" stroke-width="0.5"/>
    </g>
    <path d="M97.0547 85V70.7812H101.703C103.246 70.7812 104.405 71.1003 105.18 71.7383C105.961 72.3763 106.352 73.3203 106.352 74.5703C106.352 75.2344 106.163 75.8236 105.785 76.3379C105.408 76.8457 104.893 77.2396 104.242 77.5195C105.01 77.7344 105.616 78.1445 106.059 78.75C106.508 79.349 106.732 80.0651 106.732 80.8984C106.732 82.1745 106.319 83.1771 105.492 83.9062C104.665 84.6354 103.497 85 101.986 85H97.0547ZM98.9297 78.3496V83.4668H102.025C102.898 83.4668 103.585 83.2422 104.086 82.793C104.594 82.3372 104.848 81.7122 104.848 80.918C104.848 79.2057 103.917 78.3496 102.055 78.3496H98.9297ZM98.9297 76.8457H101.762C102.582 76.8457 103.236 76.6406 103.725 76.2305C104.219 75.8203 104.467 75.2637 104.467 74.5605C104.467 73.7793 104.239 73.2129 103.783 72.8613C103.327 72.5033 102.634 72.3242 101.703 72.3242H98.9297V76.8457ZM115.756 85C115.652 84.7917 115.567 84.4206 115.502 83.8867C114.662 84.7591 113.66 85.1953 112.494 85.1953C111.452 85.1953 110.596 84.9023 109.926 84.3164C109.262 83.724 108.93 82.9753 108.93 82.0703C108.93 80.9701 109.346 80.1172 110.18 79.5117C111.02 78.8997 112.198 78.5938 113.715 78.5938H115.473V77.7637C115.473 77.1322 115.284 76.6309 114.906 76.2598C114.529 75.8822 113.972 75.6934 113.236 75.6934C112.592 75.6934 112.051 75.8561 111.615 76.1816C111.179 76.5072 110.961 76.901 110.961 77.3633H109.145C109.145 76.8359 109.33 76.3281 109.701 75.8398C110.079 75.3451 110.587 74.9544 111.225 74.668C111.869 74.3815 112.576 74.2383 113.344 74.2383C114.561 74.2383 115.515 74.5443 116.205 75.1562C116.895 75.7617 117.253 76.5983 117.279 77.666V82.5293C117.279 83.4993 117.403 84.2708 117.65 84.8438V85H115.756ZM112.758 83.623C113.324 83.623 113.861 83.4766 114.369 83.1836C114.877 82.8906 115.245 82.5098 115.473 82.041V79.873H114.057C111.843 79.873 110.736 80.5208 110.736 81.8164C110.736 82.3828 110.925 82.8255 111.303 83.1445C111.68 83.4635 112.165 83.623 112.758 83.623ZM122.074 85H120.268V70H122.074V85ZM131.498 85C131.394 84.7917 131.309 84.4206 131.244 83.8867C130.404 84.7591 129.402 85.1953 128.236 85.1953C127.195 85.1953 126.339 84.9023 125.668 84.3164C125.004 83.724 124.672 82.9753 124.672 82.0703C124.672 80.9701 125.089 80.1172 125.922 79.5117C126.762 78.8997 127.94 78.5938 129.457 78.5938H131.215V77.7637C131.215 77.1322 131.026 76.6309 130.648 76.2598C130.271 75.8822 129.714 75.6934 128.979 75.6934C128.334 75.6934 127.794 75.8561 127.357 76.1816C126.921 76.5072 126.703 76.901 126.703 77.3633H124.887C124.887 76.8359 125.072 76.3281 125.443 75.8398C125.821 75.3451 126.329 74.9544 126.967 74.668C127.611 74.3815 128.318 74.2383 129.086 74.2383C130.303 74.2383 131.257 74.5443 131.947 75.1562C132.637 75.7617 132.995 76.5983 133.021 77.666V82.5293C133.021 83.4993 133.145 84.2708 133.393 84.8438V85H131.498ZM128.5 83.623C129.066 83.623 129.604 83.4766 130.111 83.1836C130.619 82.8906 130.987 82.5098 131.215 82.041V79.873H129.799C127.585 79.873 126.479 80.5208 126.479 81.8164C126.479 82.3828 126.667 82.8255 127.045 83.1445C127.423 83.4635 127.908 83.623 128.5 83.623ZM137.562 74.4336L137.621 75.7617C138.428 74.7461 139.483 74.2383 140.785 74.2383C143.018 74.2383 144.145 75.498 144.164 78.0176V85H142.357V78.0078C142.351 77.2461 142.175 76.6829 141.83 76.3184C141.492 75.9538 140.961 75.7715 140.238 75.7715C139.652 75.7715 139.138 75.9277 138.695 76.2402C138.253 76.5527 137.908 76.9629 137.66 77.4707V85H135.854V74.4336H137.562ZM151.127 83.7207C151.771 83.7207 152.335 83.5254 152.816 83.1348C153.298 82.7441 153.565 82.2559 153.617 81.6699H155.326C155.294 82.2754 155.085 82.8516 154.701 83.3984C154.317 83.9453 153.803 84.3815 153.158 84.707C152.52 85.0326 151.843 85.1953 151.127 85.1953C149.688 85.1953 148.542 84.7168 147.689 83.7598C146.843 82.7962 146.42 81.4811 146.42 79.8145V79.5117C146.42 78.4831 146.609 77.5684 146.986 76.7676C147.364 75.9668 147.904 75.3451 148.607 74.9023C149.317 74.4596 150.154 74.2383 151.117 74.2383C152.302 74.2383 153.285 74.5931 154.066 75.3027C154.854 76.0124 155.274 76.9336 155.326 78.0664H153.617C153.565 77.3828 153.305 76.8229 152.836 76.3867C152.374 75.944 151.801 75.7227 151.117 75.7227C150.199 75.7227 149.486 76.0547 148.979 76.7188C148.477 77.3763 148.227 78.3301 148.227 79.5801V79.9219C148.227 81.1393 148.477 82.0768 148.979 82.7344C149.48 83.3919 150.196 83.7207 151.127 83.7207ZM161.742 85.1953C160.31 85.1953 159.145 84.7266 158.246 83.7891C157.348 82.8451 156.898 81.5853 156.898 80.0098V79.6777C156.898 78.6296 157.097 77.6953 157.494 76.875C157.898 76.0482 158.458 75.4036 159.174 74.9414C159.896 74.4727 160.678 74.2383 161.518 74.2383C162.891 74.2383 163.959 74.6908 164.721 75.5957C165.482 76.5007 165.863 77.7962 165.863 79.4824V80.2344H158.705C158.731 81.276 159.034 82.1191 159.613 82.7637C160.199 83.4017 160.941 83.7207 161.84 83.7207C162.478 83.7207 163.018 83.5905 163.461 83.3301C163.904 83.0697 164.291 82.7246 164.623 82.2949L165.727 83.1543C164.841 84.515 163.513 85.1953 161.742 85.1953ZM161.518 75.7227C160.788 75.7227 160.176 75.9896 159.682 76.5234C159.187 77.0508 158.881 77.793 158.764 78.75H164.057V78.6133C164.005 77.6953 163.757 76.9857 163.314 76.4844C162.872 75.9766 162.273 75.7227 161.518 75.7227Z" fill="#6A6D93"/>
    <path d="M101.508 145.52C101.508 144.452 101.208 143.605 100.609 142.98C100.023 142.342 99.0208 141.757 97.6016 141.223C96.1823 140.689 94.9583 140.161 93.9297 139.641C92.901 139.107 92.0156 138.501 91.2734 137.824C90.5443 137.134 89.9714 136.327 89.5547 135.402C89.151 134.478 88.9492 133.378 88.9492 132.102C88.9492 129.901 89.6523 128.098 91.0586 126.691C92.4648 125.285 94.3333 124.465 96.6641 124.23V120.051H99.7891V124.289C102.094 124.615 103.897 125.578 105.199 127.18C106.501 128.768 107.152 130.832 107.152 133.371H101.508C101.508 131.809 101.182 130.643 100.531 129.875C99.8932 129.094 99.0339 128.703 97.9531 128.703C96.8854 128.703 96.0586 129.009 95.4727 129.621C94.8867 130.22 94.5938 131.053 94.5938 132.121C94.5938 133.111 94.8802 133.905 95.4531 134.504C96.026 135.103 97.0872 135.715 98.6367 136.34C100.199 136.965 101.482 137.557 102.484 138.117C103.487 138.664 104.333 139.289 105.023 139.992C105.714 140.682 106.241 141.477 106.605 142.375C106.97 143.26 107.152 144.296 107.152 145.48C107.152 147.694 106.462 149.491 105.082 150.871C103.702 152.251 101.801 153.065 99.3789 153.312V157.199H96.2734V153.332C93.6042 153.046 91.5339 152.102 90.0625 150.5C88.6042 148.885 87.875 146.743 87.875 144.074H93.5195C93.5195 145.624 93.8841 146.815 94.6133 147.648C95.3555 148.469 96.4167 148.879 97.7969 148.879C98.9427 148.879 99.8477 148.579 100.512 147.98C101.176 147.368 101.508 146.548 101.508 145.52ZM116.723 136.281H119.73C121.163 136.281 122.224 135.923 122.914 135.207C123.604 134.491 123.949 133.54 123.949 132.355C123.949 131.21 123.604 130.318 122.914 129.68C122.237 129.042 121.299 128.723 120.102 128.723C119.021 128.723 118.116 129.022 117.387 129.621C116.658 130.207 116.293 130.975 116.293 131.926H110.648C110.648 130.441 111.046 129.113 111.84 127.941C112.647 126.757 113.767 125.832 115.199 125.168C116.645 124.504 118.233 124.172 119.965 124.172C122.973 124.172 125.329 124.895 127.035 126.34C128.741 127.772 129.594 129.751 129.594 132.277C129.594 133.579 129.197 134.777 128.402 135.871C127.608 136.965 126.566 137.805 125.277 138.391C126.879 138.964 128.07 139.823 128.852 140.969C129.646 142.115 130.043 143.469 130.043 145.031C130.043 147.557 129.118 149.582 127.27 151.105C125.434 152.629 122.999 153.391 119.965 153.391C117.126 153.391 114.802 152.642 112.992 151.145C111.195 149.647 110.297 147.668 110.297 145.207H115.941C115.941 146.275 116.339 147.147 117.133 147.824C117.94 148.501 118.93 148.84 120.102 148.84C121.443 148.84 122.491 148.488 123.246 147.785C124.014 147.069 124.398 146.125 124.398 144.953C124.398 142.115 122.836 140.695 119.711 140.695H116.723V136.281ZM134.789 139.016L136.43 124.562H152.367V129.27H141.059L140.355 135.383C141.697 134.667 143.122 134.309 144.633 134.309C147.341 134.309 149.464 135.148 151 136.828C152.536 138.508 153.305 140.858 153.305 143.879C153.305 145.715 152.914 147.362 152.133 148.82C151.365 150.266 150.258 151.392 148.812 152.199C147.367 152.993 145.661 153.391 143.695 153.391C141.977 153.391 140.382 153.046 138.91 152.355C137.439 151.652 136.273 150.669 135.414 149.406C134.568 148.143 134.118 146.704 134.066 145.09H139.652C139.77 146.275 140.18 147.199 140.883 147.863C141.599 148.514 142.53 148.84 143.676 148.84C144.952 148.84 145.935 148.384 146.625 147.473C147.315 146.548 147.66 145.246 147.66 143.566C147.66 141.952 147.263 140.715 146.469 139.855C145.674 138.996 144.548 138.566 143.09 138.566C141.749 138.566 140.661 138.918 139.828 139.621L139.281 140.129L134.789 139.016ZM176.059 141.242C176.059 145.174 175.245 148.182 173.617 150.266C171.99 152.349 169.607 153.391 166.469 153.391C163.37 153.391 161 152.368 159.359 150.324C157.719 148.28 156.879 145.35 156.84 141.535V136.301C156.84 132.329 157.66 129.315 159.301 127.258C160.954 125.201 163.331 124.172 166.43 124.172C169.529 124.172 171.898 125.194 173.539 127.238C175.18 129.27 176.02 132.193 176.059 136.008V141.242ZM170.414 135.5C170.414 133.143 170.089 131.431 169.438 130.363C168.799 129.283 167.797 128.742 166.43 128.742C165.102 128.742 164.118 129.257 163.48 130.285C162.855 131.301 162.523 132.896 162.484 135.07V141.984C162.484 144.302 162.797 146.027 163.422 147.16C164.06 148.28 165.076 148.84 166.469 148.84C167.849 148.84 168.845 148.299 169.457 147.219C170.069 146.138 170.388 144.484 170.414 142.258V135.5ZM199.027 141.242C199.027 145.174 198.214 148.182 196.586 150.266C194.958 152.349 192.576 153.391 189.438 153.391C186.339 153.391 183.969 152.368 182.328 150.324C180.688 148.28 179.848 145.35 179.809 141.535V136.301C179.809 132.329 180.629 129.315 182.27 127.258C183.923 125.201 186.299 124.172 189.398 124.172C192.497 124.172 194.867 125.194 196.508 127.238C198.148 129.27 198.988 132.193 199.027 136.008V141.242ZM193.383 135.5C193.383 133.143 193.057 131.431 192.406 130.363C191.768 129.283 190.766 128.742 189.398 128.742C188.07 128.742 187.087 129.257 186.449 130.285C185.824 131.301 185.492 132.896 185.453 135.07V141.984C185.453 144.302 185.766 146.027 186.391 147.16C187.029 148.28 188.044 148.84 189.438 148.84C190.818 148.84 191.814 148.299 192.426 147.219C193.038 146.138 193.357 144.484 193.383 142.258V135.5Z" fill="#2D22EE"/>
    <g filter="url(#filter1_d_227:2)">
    <rect x="53" y="249" width="466" height="246" rx="50" fill="white"/>
    <rect x="53.25" y="249.25" width="465.5" height="245.5" rx="49.75" stroke="#F2F6FF" stroke-width="0.5"/>
    </g>
    <g filter="url(#filter2_d_227:2)">
    <rect x="293" y="25" width="223" height="180" rx="50" fill="white"/>
    <rect x="293.25" y="25.25" width="222.5" height="179.5" rx="49.75" stroke="#F2F6FF" stroke-width="0.5"/>
    </g>
    <path d="M333.002 83.4668H339.74V85H331.117V70.7812H333.002V83.4668ZM348.119 85C348.015 84.7917 347.93 84.4206 347.865 83.8867C347.025 84.7591 346.023 85.1953 344.857 85.1953C343.816 85.1953 342.96 84.9023 342.289 84.3164C341.625 83.724 341.293 82.9753 341.293 82.0703C341.293 80.9701 341.71 80.1172 342.543 79.5117C343.383 78.8997 344.561 78.5938 346.078 78.5938H347.836V77.7637C347.836 77.1322 347.647 76.6309 347.27 76.2598C346.892 75.8822 346.335 75.6934 345.6 75.6934C344.955 75.6934 344.415 75.8561 343.979 76.1816C343.542 76.5072 343.324 76.901 343.324 77.3633H341.508C341.508 76.8359 341.693 76.3281 342.064 75.8398C342.442 75.3451 342.95 74.9544 343.588 74.668C344.232 74.3815 344.939 74.2383 345.707 74.2383C346.924 74.2383 347.878 74.5443 348.568 75.1562C349.258 75.7617 349.617 76.5983 349.643 77.666V82.5293C349.643 83.4993 349.766 84.2708 350.014 84.8438V85H348.119ZM345.121 83.623C345.688 83.623 346.225 83.4766 346.732 83.1836C347.24 82.8906 347.608 82.5098 347.836 82.041V79.873H346.42C344.206 79.873 343.1 80.5208 343.1 81.8164C343.1 82.3828 343.288 82.8255 343.666 83.1445C344.044 83.4635 344.529 83.623 345.121 83.623ZM358.627 82.1973C358.627 81.709 358.441 81.3314 358.07 81.0645C357.706 80.791 357.064 80.5566 356.146 80.3613C355.235 80.166 354.509 79.9316 353.969 79.6582C353.435 79.3848 353.038 79.0592 352.777 78.6816C352.523 78.304 352.396 77.8548 352.396 77.334C352.396 76.4681 352.761 75.7357 353.49 75.1367C354.226 74.5378 355.163 74.2383 356.303 74.2383C357.501 74.2383 358.471 74.5475 359.213 75.166C359.962 75.7845 360.336 76.5755 360.336 77.5391H358.52C358.52 77.0443 358.308 76.6178 357.885 76.2598C357.468 75.9017 356.941 75.7227 356.303 75.7227C355.645 75.7227 355.131 75.8659 354.76 76.1523C354.389 76.4388 354.203 76.8132 354.203 77.2754C354.203 77.7116 354.376 78.0404 354.721 78.2617C355.066 78.4831 355.688 78.6947 356.586 78.8965C357.491 79.0983 358.223 79.3392 358.783 79.6191C359.343 79.8991 359.757 80.2376 360.023 80.6348C360.297 81.0254 360.434 81.5039 360.434 82.0703C360.434 83.0143 360.056 83.7728 359.301 84.3457C358.546 84.9121 357.566 85.1953 356.361 85.1953C355.515 85.1953 354.766 85.0456 354.115 84.7461C353.464 84.4466 352.953 84.0299 352.582 83.4961C352.217 82.9557 352.035 82.373 352.035 81.748H353.842C353.874 82.3535 354.115 82.8353 354.564 83.1934C355.02 83.5449 355.619 83.7207 356.361 83.7207C357.045 83.7207 357.592 83.584 358.002 83.3105C358.419 83.0306 358.627 82.6595 358.627 82.1973ZM365.238 71.875V74.4336H367.211V75.8301H365.238V82.3828C365.238 82.806 365.326 83.125 365.502 83.3398C365.678 83.5482 365.977 83.6523 366.4 83.6523C366.609 83.6523 366.895 83.6133 367.26 83.5352V85C366.785 85.1302 366.322 85.1953 365.873 85.1953C365.066 85.1953 364.457 84.9512 364.047 84.4629C363.637 83.9746 363.432 83.2812 363.432 82.3828V75.8301H361.508V74.4336H363.432V71.875H365.238ZM384.008 72.3242H379.438V85H377.572V72.3242H373.012V70.7812H384.008V72.3242ZM390.199 76.0547C389.926 76.0091 389.63 75.9863 389.311 75.9863C388.126 75.9863 387.322 76.4909 386.898 77.5V85H385.092V74.4336H386.85L386.879 75.6543C387.471 74.7103 388.311 74.2383 389.398 74.2383C389.75 74.2383 390.017 74.2839 390.199 74.375V76.0547ZM398.002 85C397.898 84.7917 397.813 84.4206 397.748 83.8867C396.908 84.7591 395.906 85.1953 394.74 85.1953C393.699 85.1953 392.842 84.9023 392.172 84.3164C391.508 83.724 391.176 82.9753 391.176 82.0703C391.176 80.9701 391.592 80.1172 392.426 79.5117C393.266 78.8997 394.444 78.5938 395.961 78.5938H397.719V77.7637C397.719 77.1322 397.53 76.6309 397.152 76.2598C396.775 75.8822 396.218 75.6934 395.482 75.6934C394.838 75.6934 394.298 75.8561 393.861 76.1816C393.425 76.5072 393.207 76.901 393.207 77.3633H391.391C391.391 76.8359 391.576 76.3281 391.947 75.8398C392.325 75.3451 392.833 74.9544 393.471 74.668C394.115 74.3815 394.822 74.2383 395.59 74.2383C396.807 74.2383 397.761 74.5443 398.451 75.1562C399.141 75.7617 399.499 76.5983 399.525 77.666V82.5293C399.525 83.4993 399.649 84.2708 399.896 84.8438V85H398.002ZM395.004 83.623C395.57 83.623 396.107 83.4766 396.615 83.1836C397.123 82.8906 397.491 82.5098 397.719 82.041V79.873H396.303C394.089 79.873 392.982 80.5208 392.982 81.8164C392.982 82.3828 393.171 82.8255 393.549 83.1445C393.926 83.4635 394.411 83.623 395.004 83.623ZM404.066 74.4336L404.125 75.7617C404.932 74.7461 405.987 74.2383 407.289 74.2383C409.522 74.2383 410.648 75.498 410.668 78.0176V85H408.861V78.0078C408.855 77.2461 408.679 76.6829 408.334 76.3184C407.995 75.9538 407.465 75.7715 406.742 75.7715C406.156 75.7715 405.642 75.9277 405.199 76.2402C404.757 76.5527 404.411 76.9629 404.164 77.4707V85H402.357V74.4336H404.066ZM419.545 82.1973C419.545 81.709 419.359 81.3314 418.988 81.0645C418.624 80.791 417.982 80.5566 417.064 80.3613C416.153 80.166 415.427 79.9316 414.887 79.6582C414.353 79.3848 413.956 79.0592 413.695 78.6816C413.441 78.304 413.314 77.8548 413.314 77.334C413.314 76.4681 413.679 75.7357 414.408 75.1367C415.144 74.5378 416.081 74.2383 417.221 74.2383C418.419 74.2383 419.389 74.5475 420.131 75.166C420.88 75.7845 421.254 76.5755 421.254 77.5391H419.438C419.438 77.0443 419.226 76.6178 418.803 76.2598C418.386 75.9017 417.859 75.7227 417.221 75.7227C416.563 75.7227 416.049 75.8659 415.678 76.1523C415.307 76.4388 415.121 76.8132 415.121 77.2754C415.121 77.7116 415.294 78.0404 415.639 78.2617C415.984 78.4831 416.605 78.6947 417.504 78.8965C418.409 79.0983 419.141 79.3392 419.701 79.6191C420.261 79.8991 420.674 80.2376 420.941 80.6348C421.215 81.0254 421.352 81.5039 421.352 82.0703C421.352 83.0143 420.974 83.7728 420.219 84.3457C419.464 84.9121 418.484 85.1953 417.279 85.1953C416.433 85.1953 415.684 85.0456 415.033 84.7461C414.382 84.4466 413.871 84.0299 413.5 83.4961C413.135 82.9557 412.953 82.373 412.953 81.748H414.76C414.792 82.3535 415.033 82.8353 415.482 83.1934C415.938 83.5449 416.537 83.7207 417.279 83.7207C417.963 83.7207 418.51 83.584 418.92 83.3105C419.337 83.0306 419.545 82.6595 419.545 82.1973ZM430.229 85C430.124 84.7917 430.04 84.4206 429.975 83.8867C429.135 84.7591 428.132 85.1953 426.967 85.1953C425.925 85.1953 425.069 84.9023 424.398 84.3164C423.734 83.724 423.402 82.9753 423.402 82.0703C423.402 80.9701 423.819 80.1172 424.652 79.5117C425.492 78.8997 426.671 78.5938 428.188 78.5938H429.945V77.7637C429.945 77.1322 429.757 76.6309 429.379 76.2598C429.001 75.8822 428.445 75.6934 427.709 75.6934C427.064 75.6934 426.524 75.8561 426.088 76.1816C425.652 76.5072 425.434 76.901 425.434 77.3633H423.617C423.617 76.8359 423.803 76.3281 424.174 75.8398C424.551 75.3451 425.059 74.9544 425.697 74.668C426.342 74.3815 427.048 74.2383 427.816 74.2383C429.034 74.2383 429.988 74.5443 430.678 75.1562C431.368 75.7617 431.726 76.5983 431.752 77.666V82.5293C431.752 83.4993 431.876 84.2708 432.123 84.8438V85H430.229ZM427.23 83.623C427.797 83.623 428.334 83.4766 428.842 83.1836C429.35 82.8906 429.717 82.5098 429.945 82.041V79.873H428.529C426.316 79.873 425.209 80.5208 425.209 81.8164C425.209 82.3828 425.398 82.8255 425.775 83.1445C426.153 83.4635 426.638 83.623 427.23 83.623ZM438.822 83.7207C439.467 83.7207 440.03 83.5254 440.512 83.1348C440.993 82.7441 441.26 82.2559 441.312 81.6699H443.021C442.989 82.2754 442.781 82.8516 442.396 83.3984C442.012 83.9453 441.498 84.3815 440.854 84.707C440.215 85.0326 439.538 85.1953 438.822 85.1953C437.383 85.1953 436.238 84.7168 435.385 83.7598C434.538 82.7962 434.115 81.4811 434.115 79.8145V79.5117C434.115 78.4831 434.304 77.5684 434.682 76.7676C435.059 75.9668 435.6 75.3451 436.303 74.9023C437.012 74.4596 437.849 74.2383 438.812 74.2383C439.997 74.2383 440.98 74.5931 441.762 75.3027C442.549 76.0124 442.969 76.9336 443.021 78.0664H441.312C441.26 77.3828 441 76.8229 440.531 76.3867C440.069 75.944 439.496 75.7227 438.812 75.7227C437.895 75.7227 437.182 76.0547 436.674 76.7188C436.173 77.3763 435.922 78.3301 435.922 79.5801V79.9219C435.922 81.1393 436.173 82.0768 436.674 82.7344C437.175 83.3919 437.891 83.7207 438.822 83.7207ZM447.504 71.875V74.4336H449.477V75.8301H447.504V82.3828C447.504 82.806 447.592 83.125 447.768 83.3398C447.943 83.5482 448.243 83.6523 448.666 83.6523C448.874 83.6523 449.161 83.6133 449.525 83.5352V85C449.05 85.1302 448.588 85.1953 448.139 85.1953C447.331 85.1953 446.723 84.9512 446.312 84.4629C445.902 83.9746 445.697 83.2812 445.697 82.3828V75.8301H443.773V74.4336H445.697V71.875H447.504ZM453.559 85H451.752V74.4336H453.559V85ZM451.605 71.6309C451.605 71.3379 451.693 71.0905 451.869 70.8887C452.051 70.6868 452.318 70.5859 452.67 70.5859C453.021 70.5859 453.288 70.6868 453.471 70.8887C453.653 71.0905 453.744 71.3379 453.744 71.6309C453.744 71.9238 453.653 72.168 453.471 72.3633C453.288 72.5586 453.021 72.6562 452.67 72.6562C452.318 72.6562 452.051 72.5586 451.869 72.3633C451.693 72.168 451.605 71.9238 451.605 71.6309ZM455.98 79.6191C455.98 78.584 456.182 77.653 456.586 76.8262C456.996 75.9993 457.562 75.3613 458.285 74.9121C459.014 74.4629 459.844 74.2383 460.775 74.2383C462.214 74.2383 463.376 74.7363 464.262 75.7324C465.154 76.7285 465.6 78.0534 465.6 79.707V79.834C465.6 80.8626 465.401 81.7871 465.004 82.6074C464.613 83.4212 464.05 84.056 463.314 84.5117C462.585 84.9674 461.745 85.1953 460.795 85.1953C459.363 85.1953 458.201 84.6973 457.309 83.7012C456.423 82.7051 455.98 81.3867 455.98 79.7461V79.6191ZM457.797 79.834C457.797 81.0059 458.067 81.9466 458.607 82.6562C459.154 83.3659 459.883 83.7207 460.795 83.7207C461.713 83.7207 462.442 83.3626 462.982 82.6465C463.523 81.9238 463.793 80.9147 463.793 79.6191C463.793 78.4603 463.516 77.5228 462.963 76.8066C462.416 76.084 461.687 75.7227 460.775 75.7227C459.883 75.7227 459.164 76.0775 458.617 76.7871C458.07 77.4967 457.797 78.5124 457.797 79.834ZM469.574 74.4336L469.633 75.7617C470.44 74.7461 471.495 74.2383 472.797 74.2383C475.03 74.2383 476.156 75.498 476.176 78.0176V85H474.369V78.0078C474.363 77.2461 474.187 76.6829 473.842 76.3184C473.503 75.9538 472.973 75.7715 472.25 75.7715C471.664 75.7715 471.15 75.9277 470.707 76.2402C470.264 76.5527 469.919 76.9629 469.672 77.4707V85H467.865V74.4336H469.574Z" fill="#6A6D93"/>
    <path d="M344.508 145.52C344.508 144.452 344.208 143.605 343.609 142.98C343.023 142.342 342.021 141.757 340.602 141.223C339.182 140.689 337.958 140.161 336.93 139.641C335.901 139.107 335.016 138.501 334.273 137.824C333.544 137.134 332.971 136.327 332.555 135.402C332.151 134.478 331.949 133.378 331.949 132.102C331.949 129.901 332.652 128.098 334.059 126.691C335.465 125.285 337.333 124.465 339.664 124.23V120.051H342.789V124.289C345.094 124.615 346.897 125.578 348.199 127.18C349.501 128.768 350.152 130.832 350.152 133.371H344.508C344.508 131.809 344.182 130.643 343.531 129.875C342.893 129.094 342.034 128.703 340.953 128.703C339.885 128.703 339.059 129.009 338.473 129.621C337.887 130.22 337.594 131.053 337.594 132.121C337.594 133.111 337.88 133.905 338.453 134.504C339.026 135.103 340.087 135.715 341.637 136.34C343.199 136.965 344.482 137.557 345.484 138.117C346.487 138.664 347.333 139.289 348.023 139.992C348.714 140.682 349.241 141.477 349.605 142.375C349.97 143.26 350.152 144.296 350.152 145.48C350.152 147.694 349.462 149.491 348.082 150.871C346.702 152.251 344.801 153.065 342.379 153.312V157.199H339.273V153.332C336.604 153.046 334.534 152.102 333.062 150.5C331.604 148.885 330.875 146.743 330.875 144.074H336.52C336.52 145.624 336.884 146.815 337.613 147.648C338.355 148.469 339.417 148.879 340.797 148.879C341.943 148.879 342.848 148.579 343.512 147.98C344.176 147.368 344.508 146.548 344.508 145.52ZM373.473 153H353.98V149.133L363.18 139.328C364.443 137.948 365.374 136.743 365.973 135.715C366.585 134.686 366.891 133.71 366.891 132.785C366.891 131.522 366.572 130.533 365.934 129.816C365.296 129.087 364.384 128.723 363.199 128.723C361.923 128.723 360.914 129.165 360.172 130.051C359.443 130.923 359.078 132.076 359.078 133.508H353.414C353.414 131.776 353.824 130.194 354.645 128.762C355.478 127.329 356.65 126.21 358.16 125.402C359.671 124.582 361.383 124.172 363.297 124.172C366.227 124.172 368.499 124.875 370.113 126.281C371.741 127.688 372.555 129.673 372.555 132.238C372.555 133.645 372.19 135.077 371.461 136.535C370.732 137.993 369.482 139.693 367.711 141.633L361.246 148.449H373.473V153ZM396.09 141.242C396.09 145.174 395.276 148.182 393.648 150.266C392.021 152.349 389.638 153.391 386.5 153.391C383.401 153.391 381.031 152.368 379.391 150.324C377.75 148.28 376.91 145.35 376.871 141.535V136.301C376.871 132.329 377.691 129.315 379.332 127.258C380.986 125.201 383.362 124.172 386.461 124.172C389.56 124.172 391.93 125.194 393.57 127.238C395.211 129.27 396.051 132.193 396.09 136.008V141.242ZM390.445 135.5C390.445 133.143 390.12 131.431 389.469 130.363C388.831 129.283 387.828 128.742 386.461 128.742C385.133 128.742 384.15 129.257 383.512 130.285C382.887 131.301 382.555 132.896 382.516 135.07V141.984C382.516 144.302 382.828 146.027 383.453 147.16C384.091 148.28 385.107 148.84 386.5 148.84C387.88 148.84 388.876 148.299 389.488 147.219C390.1 146.138 390.419 144.484 390.445 142.258V135.5ZM419.059 141.242C419.059 145.174 418.245 148.182 416.617 150.266C414.99 152.349 412.607 153.391 409.469 153.391C406.37 153.391 404 152.368 402.359 150.324C400.719 148.28 399.879 145.35 399.84 141.535V136.301C399.84 132.329 400.66 129.315 402.301 127.258C403.954 125.201 406.331 124.172 409.43 124.172C412.529 124.172 414.898 125.194 416.539 127.238C418.18 129.27 419.02 132.193 419.059 136.008V141.242ZM413.414 135.5C413.414 133.143 413.089 131.431 412.438 130.363C411.799 129.283 410.797 128.742 409.43 128.742C408.102 128.742 407.118 129.257 406.48 130.285C405.855 131.301 405.523 132.896 405.484 135.07V141.984C405.484 144.302 405.797 146.027 406.422 147.16C407.06 148.28 408.076 148.84 409.469 148.84C410.849 148.84 411.845 148.299 412.457 147.219C413.069 146.138 413.388 144.484 413.414 142.258V135.5ZM442.027 141.242C442.027 145.174 441.214 148.182 439.586 150.266C437.958 152.349 435.576 153.391 432.438 153.391C429.339 153.391 426.969 152.368 425.328 150.324C423.688 148.28 422.848 145.35 422.809 141.535V136.301C422.809 132.329 423.629 129.315 425.27 127.258C426.923 125.201 429.299 124.172 432.398 124.172C435.497 124.172 437.867 125.194 439.508 127.238C441.148 129.27 441.988 132.193 442.027 136.008V141.242ZM436.383 135.5C436.383 133.143 436.057 131.431 435.406 130.363C434.768 129.283 433.766 128.742 432.398 128.742C431.07 128.742 430.087 129.257 429.449 130.285C428.824 131.301 428.492 132.896 428.453 135.07V141.984C428.453 144.302 428.766 146.027 429.391 147.16C430.029 148.28 431.044 148.84 432.438 148.84C433.818 148.84 434.814 148.299 435.426 147.219C436.038 146.138 436.357 144.484 436.383 142.258V135.5Z" fill="#2D22EE"/>
    <path d="M166.596 461.3H163.765V469H161.86V461.3H159.067V459.758H166.596V461.3ZM174.683 459.758V465.845C174.683 466.857 174.365 467.656 173.731 468.245C173.1 468.833 172.237 469.127 171.141 469.127C170.062 469.127 169.205 468.841 168.57 468.27C167.935 467.699 167.611 466.914 167.599 465.915V459.758H169.503V465.858C169.503 466.463 169.647 466.905 169.935 467.185C170.227 467.46 170.629 467.597 171.141 467.597C172.211 467.597 172.755 467.034 172.772 465.909V459.758H174.683ZM181.805 464.995H178.149V467.47H182.44V469H176.244V459.758H182.427V461.3H178.149V463.503H181.805V464.995Z" fill="#6A6D93"/>
    <rect x="151.737" y="350" width="14.4053" height="92" rx="7.20263" fill="#2D22EE"/>
    <rect x="174.374" y="393" width="14.4053" height="48" rx="7.20263" fill="#F44E77"/>
    <path d="M221.302 466.334L222.546 459.758H224.444L222.394 469H220.477L218.972 462.817L217.468 469H215.551L213.501 459.758H215.399L216.649 466.321L218.173 459.758H219.785L221.302 466.334ZM231.039 464.995H227.383V467.47H231.674V469H225.479V459.758H231.661V461.3H227.383V463.503H231.039V464.995ZM232.791 469V459.758H235.635C236.447 459.758 237.173 459.942 237.812 460.31C238.455 460.674 238.957 461.194 239.317 461.872C239.676 462.544 239.856 463.31 239.856 464.169V464.595C239.856 465.454 239.678 466.218 239.323 466.886C238.972 467.555 238.474 468.073 237.831 468.441C237.188 468.81 236.462 468.996 235.654 469H232.791ZM234.696 461.3V467.47H235.616C236.361 467.47 236.93 467.227 237.323 466.74C237.717 466.254 237.918 465.557 237.926 464.652V464.163C237.926 463.224 237.732 462.513 237.342 462.03C236.953 461.544 236.384 461.3 235.635 461.3H234.696Z" fill="#6A6D93"/>
    <rect x="208.329" y="275" width="14.4053" height="167" rx="7.20263" fill="#2D22EE"/>
    <rect x="230.965" y="338" width="14.4053" height="103" rx="7.20263" fill="#F44E77"/>
    <path d="M280.348 461.3H277.517V469H275.613V461.3H272.82V459.758H280.348V461.3ZM288.962 469H287.058V465.039H283.344V469H281.44V459.758H283.344V463.503H287.058V459.758H288.962V469ZM297.626 459.758V465.845C297.626 466.857 297.309 467.656 296.674 468.245C296.044 468.833 295.18 469.127 294.084 469.127C293.005 469.127 292.148 468.841 291.514 468.27C290.879 467.699 290.555 466.914 290.542 465.915V459.758H292.447V465.858C292.447 466.463 292.591 466.905 292.878 467.185C293.17 467.46 293.572 467.597 294.084 467.597C295.155 467.597 295.699 467.034 295.716 465.909V459.758H297.626ZM302.609 465.617H301.092V469H299.188V459.758H302.622C303.714 459.758 304.556 460.001 305.148 460.488C305.741 460.974 306.037 461.662 306.037 462.551C306.037 463.181 305.899 463.708 305.624 464.131C305.354 464.55 304.941 464.885 304.387 465.134L306.386 468.911V469H304.342L302.609 465.617ZM301.092 464.074H302.628C303.107 464.074 303.477 463.954 303.739 463.712C304.002 463.467 304.133 463.131 304.133 462.703C304.133 462.267 304.008 461.924 303.758 461.675C303.513 461.425 303.134 461.3 302.622 461.3H301.092V464.074Z" fill="#6A6D93"/>
    <rect x="271.095" y="308" width="14.4053" height="134" rx="7.20263" fill="#2D22EE"/>
    <rect x="293.731" y="338" width="14.4053" height="103" rx="7.20263" fill="#F44E77"/>
    <path d="M348.128 465.223H344.472V469H342.567V459.758H348.585V461.3H344.472V463.687H348.128V465.223ZM353.111 465.617H351.594V469H349.689V459.758H353.124C354.215 459.758 355.057 460.001 355.65 460.488C356.242 460.974 356.539 461.662 356.539 462.551C356.539 463.181 356.401 463.708 356.126 464.131C355.855 464.55 355.443 464.885 354.888 465.134L356.888 468.911V469H354.844L353.111 465.617ZM351.594 464.074H353.13C353.608 464.074 353.978 463.954 354.241 463.712C354.503 463.467 354.634 463.131 354.634 462.703C354.634 462.267 354.509 461.924 354.26 461.675C354.014 461.425 353.636 461.3 353.124 461.3H351.594V464.074ZM360.017 469H358.113V459.758H360.017V469Z" fill="#6A6D93"/>
    <rect x="332.832" y="415" width="14.4053" height="27" rx="7.20263" fill="#2D22EE"/>
    <rect x="355.468" y="269" width="14.4053" height="172" rx="7.20263" fill="#F44E77"/>
    <path d="M401.031 466.575C401.031 466.215 400.905 465.94 400.651 465.75C400.397 465.555 399.94 465.352 399.28 465.141C398.619 464.925 398.097 464.713 397.712 464.506C396.662 463.939 396.137 463.175 396.137 462.214C396.137 461.715 396.277 461.271 396.556 460.881C396.84 460.488 397.244 460.181 397.769 459.961C398.298 459.741 398.89 459.631 399.546 459.631C400.206 459.631 400.795 459.751 401.311 459.993C401.827 460.23 402.227 460.566 402.51 461.002C402.798 461.438 402.942 461.933 402.942 462.487H401.038C401.038 462.064 400.905 461.736 400.638 461.503C400.371 461.266 399.997 461.148 399.514 461.148C399.049 461.148 398.687 461.247 398.429 461.446C398.171 461.641 398.042 461.899 398.042 462.221C398.042 462.521 398.192 462.773 398.492 462.976C398.797 463.179 399.244 463.37 399.832 463.547C400.915 463.873 401.704 464.277 402.199 464.76C402.695 465.242 402.942 465.843 402.942 466.562C402.942 467.362 402.64 467.991 402.034 468.448C401.429 468.901 400.615 469.127 399.591 469.127C398.88 469.127 398.232 468.998 397.648 468.74C397.064 468.477 396.618 468.12 396.309 467.667C396.004 467.214 395.852 466.689 395.852 466.093H397.762C397.762 467.113 398.372 467.623 399.591 467.623C400.043 467.623 400.397 467.532 400.651 467.35C400.905 467.163 401.031 466.905 401.031 466.575ZM409.455 467.096H406.116L405.481 469H403.456L406.897 459.758H408.661L412.121 469H410.096L409.455 467.096ZM406.63 465.553H408.941L407.779 462.094L406.63 465.553ZM419.179 461.3H416.348V469H414.444V461.3H411.651V459.758H419.179V461.3Z" fill="#6A6D93"/>
    <rect x="388.395" y="371" width="14.4053" height="71" rx="7.20263" fill="#2D22EE"/>
    <rect x="411.031" y="317" width="14.4053" height="124" rx="7.20263" fill="#F44E77"/>
    <path d="M455.23 466.575C455.23 466.215 455.103 465.94 454.849 465.75C454.595 465.555 454.138 465.352 453.478 465.141C452.818 464.925 452.295 464.713 451.91 464.506C450.861 463.939 450.336 463.175 450.336 462.214C450.336 461.715 450.476 461.271 450.755 460.881C451.038 460.488 451.443 460.181 451.967 459.961C452.496 459.741 453.089 459.631 453.745 459.631C454.405 459.631 454.993 459.751 455.509 459.993C456.026 460.23 456.426 460.566 456.709 461.002C456.997 461.438 457.141 461.933 457.141 462.487H455.236C455.236 462.064 455.103 461.736 454.836 461.503C454.57 461.266 454.195 461.148 453.713 461.148C453.247 461.148 452.886 461.247 452.627 461.446C452.369 461.641 452.24 461.899 452.24 462.221C452.24 462.521 452.391 462.773 452.691 462.976C452.996 463.179 453.442 463.37 454.03 463.547C455.114 463.873 455.903 464.277 456.398 464.76C456.893 465.242 457.141 465.843 457.141 466.562C457.141 467.362 456.838 467.991 456.233 468.448C455.628 468.901 454.813 469.127 453.789 469.127C453.078 469.127 452.431 468.998 451.847 468.74C451.263 468.477 450.816 468.12 450.507 467.667C450.203 467.214 450.05 466.689 450.05 466.093H451.961C451.961 467.113 452.57 467.623 453.789 467.623C454.242 467.623 454.595 467.532 454.849 467.35C455.103 467.163 455.23 466.905 455.23 466.575ZM465.431 459.758V465.845C465.431 466.857 465.113 467.656 464.479 468.245C463.848 468.833 462.985 469.127 461.889 469.127C460.81 469.127 459.953 468.841 459.318 468.27C458.683 467.699 458.359 466.914 458.347 465.915V459.758H460.251V465.858C460.251 466.463 460.395 466.905 460.683 467.185C460.975 467.46 461.377 467.597 461.889 467.597C462.959 467.597 463.503 467.034 463.52 465.909V459.758H465.431ZM474.508 469H472.604L468.897 462.919V469H466.992V459.758H468.897L472.61 465.852V459.758H474.508V469Z" fill="#6A6D93"/>
    <rect x="443.958" y="356" width="14.4053" height="86" rx="7.20263" fill="#2D22EE"/>
    <rect x="466.595" y="356" width="14.4053" height="85" rx="7.20263" fill="#F44E77"/>
    <path d="M100.15 459.758L102.524 466.461L104.886 459.758H107.387V469H105.476V466.474L105.666 462.113L103.172 469H101.864L99.376 462.119L99.5664 466.474V469H97.6621V459.758H100.15ZM116.642 464.588C116.642 465.498 116.481 466.296 116.159 466.981C115.838 467.667 115.376 468.196 114.775 468.568C114.179 468.941 113.493 469.127 112.719 469.127C111.953 469.127 111.269 468.943 110.668 468.575C110.068 468.207 109.602 467.682 109.272 467C108.942 466.315 108.775 465.528 108.77 464.639V464.182C108.77 463.272 108.933 462.472 109.259 461.783C109.589 461.089 110.053 460.558 110.649 460.189C111.25 459.817 111.936 459.631 112.706 459.631C113.476 459.631 114.16 459.817 114.756 460.189C115.357 460.558 115.821 461.089 116.146 461.783C116.477 462.472 116.642 463.27 116.642 464.176V464.588ZM114.712 464.169C114.712 463.2 114.538 462.464 114.191 461.96C113.844 461.457 113.349 461.205 112.706 461.205C112.067 461.205 111.574 461.455 111.227 461.954C110.88 462.449 110.704 463.177 110.7 464.138V464.588C110.7 465.532 110.874 466.264 111.221 466.785C111.568 467.305 112.067 467.565 112.719 467.565C113.358 467.565 113.849 467.316 114.191 466.816C114.534 466.313 114.708 465.581 114.712 464.62V464.169ZM125.541 469H123.637L119.93 462.919V469H118.025V459.758H119.93L123.643 465.852V459.758H125.541V469Z" fill="#6A6D93"/>
    <rect x="93.0869" y="308" width="14.4053" height="134" rx="7.20263" fill="#2D22EE"/>
    <rect x="115.724" y="371" width="14.4053" height="70" rx="7.20263" fill="#F44E77"/>
    <defs>
    <filter id="filter0_d_227:2" x="0" y="0" width="323" height="280" filterUnits="userSpaceOnUse" color-interpolation-filters="sRGB">
    <feFlood flood-opacity="0" result="BackgroundImageFix"/>
    <feColorMatrix in="SourceAlpha" type="matrix" values="0 0 0 0 0 0 0 0 0 0 0 0 0 0 0 0 0 0 127 0" result="hardAlpha"/>
    <feOffset dy="25"/>
    <feGaussianBlur stdDeviation="25"/>
    <feComposite in2="hardAlpha" operator="out"/>
    <feColorMatrix type="matrix" values="0 0 0 0 0.0862745 0 0 0 0 0.0980392 0 0 0 0 0.309804 0 0 0 0.05 0"/>
    <feBlend mode="normal" in2="BackgroundImageFix" result="effect1_dropShadow_227:2"/>
    <feBlend mode="normal" in="SourceGraphic" in2="effect1_dropShadow_227:2" result="shape"/>
    </filter>
    <filter id="filter1_d_227:2" x="3" y="224" width="566" height="346" filterUnits="userSpaceOnUse" color-interpolation-filters="sRGB">
    <feFlood flood-opacity="0" result="BackgroundImageFix"/>
    <feColorMatrix in="SourceAlpha" type="matrix" values="0 0 0 0 0 0 0 0 0 0 0 0 0 0 0 0 0 0 127 0" result="hardAlpha"/>
    <feOffset dy="25"/>
    <feGaussianBlur stdDeviation="25"/>
    <feComposite in2="hardAlpha" operator="out"/>
    <feColorMatrix type="matrix" values="0 0 0 0 0.0862745 0 0 0 0 0.0980392 0 0 0 0 0.309804 0 0 0 0.05 0"/>
    <feBlend mode="normal" in2="BackgroundImageFix" result="effect1_dropShadow_227:2"/>
    <feBlend mode="normal" in="SourceGraphic" in2="effect1_dropShadow_227:2" result="shape"/>
    </filter>
    <filter id="filter2_d_227:2" x="243" y="0" width="323" height="280" filterUnits="userSpaceOnUse" color-interpolation-filters="sRGB">
    <feFlood flood-opacity="0" result="BackgroundImageFix"/>
    <feColorMatrix in="SourceAlpha" type="matrix" values="0 0 0 0 0 0 0 0 0 0 0 0 0 0 0 0 0 0 127 0" result="hardAlpha"/>
    <feOffset dy="25"/>
    <feGaussianBlur stdDeviation="25"/>
    <feComposite in2="hardAlpha" operator="out"/>
    <feColorMatrix type="matrix" values="0 0 0 0 0.0862745 0 0 0 0 0.0980392 0 0 0 0 0.309804 0 0 0 0.05 0"/>
    <feBlend mode="normal" in2="BackgroundImageFix" result="effect1_dropShadow_227:2"/>
    <feBlend mode="normal" in="SourceGraphic" in2="effect1_dropShadow_227:2" result="shape"/>
    </filter>
    </defs>
    </svg>
    
    